<?xml version="1.0" standalone="no"?>
<!DOCTYPE svg PUBLIC "-//W3C//DTD SVG 20010904//EN"
 "http://www.w3.org/TR/2001/REC-SVG-20010904/DTD/svg10.dtd">
<svg version="1.0" xmlns="http://www.w3.org/2000/svg"
 width="677.000000pt" height="677.000000pt" viewBox="0 0 677.000000 677.000000"
 preserveAspectRatio="xMidYMid meet">
<metadata>
Created by potrace 1.14, written by Peter Selinger 2001-2017
</metadata>
<g transform="translate(0.000000,677.000000) scale(0.100000,-0.100000)"
fill="#000000" stroke="none">
<path d="M3333 5900 c-47 -19 -57 -87 -18 -125 48 -49 120 -23 131 47 5 30 2
41 -19 62 -27 27 -55 31 -94 16z"/>
<path d="M3051 5783 c-12 -10 -24 -35 -27 -55 -12 -74 77 -117 131 -63 70 69
-28 179 -104 118z"/>
<path d="M3636 5775 c-33 -31 -34 -73 -2 -108 13 -14 22 -28 19 -30 -2 -3 -6
-12 -7 -21 -1 -8 -14 -29 -29 -45 -17 -20 -22 -32 -14 -35 7 -4 2 -4 -10 -2
-17 3 -23 -1 -23 -15 0 -10 -5 -19 -11 -19 -6 0 -8 -7 -5 -16 4 -10 2 -13 -6
-8 -8 5 -9 2 -4 -11 5 -14 4 -16 -7 -7 -11 9 -17 4 -30 -24 -20 -41 -38 -36
-35 8 1 18 -3 33 -10 36 -6 2 -12 14 -12 26 0 12 -6 28 -12 35 -10 11 -10 13
0 7 6 -4 12 -2 12 3 0 6 -4 11 -8 11 -8 0 -36 87 -48 148 -6 29 -24 46 -24 21
0 -5 -6 -7 -12 -3 -10 6 -10 4 0 -7 6 -7 12 -25 12 -39 0 -14 -6 -32 -12 -39
-11 -11 -10 -12 2 -6 12 6 13 5 3 -6 -7 -7 -13 -23 -13 -36 0 -13 -4 -23 -10
-23 -5 0 -9 -3 -9 -7 4 -24 -2 -43 -12 -37 -7 4 -6 -2 2 -17 11 -21 10 -23 -3
-11 -13 10 -15 9 -10 -13 2 -15 0 -25 -7 -25 -6 0 -10 -3 -10 -7 3 -18 -2 -33
-10 -33 -10 0 -27 39 -23 53 1 4 -5 7 -14 7 -8 0 -12 5 -9 10 3 6 -2 10 -12
10 -15 0 -16 2 -3 10 11 7 11 10 2 10 -7 0 -10 5 -7 10 3 6 0 10 -8 10 -7 0
-19 11 -25 25 -7 14 -19 28 -27 31 -8 4 -12 11 -8 17 3 6 1 7 -5 3 -8 -5 -12
-57 -12 -166 0 -150 -1 -159 -19 -157 -10 0 -17 6 -14 13 3 7 -5 10 -22 9 -21
-3 -24 -1 -15 10 9 11 5 18 -21 34 -18 11 -37 17 -42 14 -6 -3 -7 -1 -3 6 4 6
12 8 18 5 7 -4 8 -2 4 4 -4 7 -14 12 -22 12 -8 0 -14 5 -14 11 0 6 -7 3 -16
-6 -15 -15 -15 -17 0 -34 9 -10 13 -21 9 -26 -5 -4 -3 -5 3 -2 7 4 16 -11 24
-36 15 -47 44 -118 65 -159 8 -16 10 -28 5 -28 -6 0 -10 -4 -10 -10 0 -15 27
-12 33 3 9 24 90 41 212 43 123 2 194 -5 345 -32 44 -8 115 -13 104 -8 -13 6
-7 44 7 44 5 0 8 3 8 8 -4 23 2 62 9 58 4 -2 9 10 10 27 4 47 7 60 20 84 7 13
8 24 3 28 -14 8 -61 -16 -61 -31 0 -7 -5 -16 -12 -20 -7 -4 -8 -3 -4 4 12 19
-1 14 -30 -13 -15 -14 -30 -25 -34 -25 -4 0 -7 55 -8 121 -1 67 -4 130 -8 141
-3 10 -3 37 1 58 6 35 10 40 34 40 69 0 105 87 56 135 -31 32 -74 32 -109 0z
m-576 -441 c0 -2 -9 0 -20 6 -11 6 -20 13 -20 16 0 2 9 0 20 -6 11 -6 20 -13
20 -16z"/>
<path d="M2845 5565 c-23 -22 -26 -32 -22 -63 8 -45 24 -61 69 -68 28 -5 40
-1 61 19 51 47 26 122 -45 133 -31 5 -41 2 -63 -21z"/>
<path d="M3825 5524 c-23 -22 -27 -31 -22 -62 12 -69 80 -94 131 -47 34 32 35
77 1 110 -32 33 -74 32 -110 -1z"/>
<path d="M3366 4936 c-9 -6 -35 -63 -58 -127 l-43 -116 -27 39 c-20 27 -33 36
-45 32 -14 -5 -15 -4 -4 4 12 9 8 20 -23 66 -32 46 -41 53 -56 44 -19 -12 -22
-37 -7 -56 5 -7 7 -15 3 -19 -10 -10 -43 26 -49 53 -4 24 5 29 41 25 6 -1 12
4 12 12 0 9 -11 14 -30 14 -21 0 -27 -3 -18 -9 8 -6 1 -7 -19 -4 -18 2 -33 1
-33 -3 0 -5 -11 -6 -25 -3 -29 5 -32 -9 -14 -70 9 -35 29 -53 29 -26 0 6 2 9
5 6 3 -3 1 -17 -4 -30 -7 -18 -6 -29 2 -38 9 -9 9 -11 0 -6 -8 4 -8 -3 -1 -28
7 -22 16 -32 24 -29 8 3 14 0 14 -6 0 -6 -5 -11 -11 -11 -12 0 -3 -77 11 -95
8 -10 10 -16 10 -36 0 -8 6 -7 17 2 16 13 16 12 1 -9 -14 -21 -14 -29 -1 -81
l15 -57 51 10 c29 6 55 14 58 19 4 5 2 25 -2 46 -9 36 -21 106 -22 129 0 6 -3
12 -6 12 -3 0 -7 19 -8 42 -2 23 1 38 5 32 22 -26 59 -81 65 -97 8 -21 42 -35
73 -29 17 3 27 18 44 73 13 38 26 69 30 69 4 0 8 -21 9 -47 3 -62 10 -196 10
-206 1 -4 29 -7 63 -5 l62 3 2 220 c1 121 -2 228 -7 238 -7 11 -6 17 1 17 6 0
10 10 8 23 -3 23 -27 30 -40 12 -5 -6 -8 -6 -8 3 0 6 -7 12 -15 12 -8 0 -15
-6 -15 -12 0 -8 -3 -9 -8 -3 -10 14 -49 15 -66 1z m104 -24 c0 -13 -12 -22
-22 -16 -10 6 -1 24 13 24 5 0 9 -4 9 -8z m-40 -11 c0 -5 -7 -12 -16 -15 -14
-5 -15 -4 -4 9 14 17 20 19 20 6z m-12 -48 c-2 -11 2 -17 11 -15 12 3 12 0 1
-12 -7 -9 -20 -16 -29 -15 -12 0 -11 2 4 9 18 7 18 9 3 15 -14 5 -15 10 -5 21
16 18 18 17 15 -3z m-44 -58 c-6 -16 -24 -21 -24 -7 0 11 11 22 21 22 5 0 6
-7 3 -15z m-31 -71 c-2 -7 -11 -10 -19 -7 -10 4 -11 10 -3 25 8 16 13 18 19 8
5 -7 6 -19 3 -26z m-303 -36 c0 -5 -4 -8 -10 -8 -5 0 -10 10 -10 23 0 18 2 19
10 7 5 -8 10 -18 10 -22z m345 21 c11 -17 2 -18 -19 -3 -17 12 -17 14 -4 14 9
0 20 -5 23 -11z m-45 -13 c0 -3 -4 -8 -10 -11 -5 -3 -10 -1 -10 4 0 6 5 11 10
11 6 0 10 -2 10 -4z"/>
<path d="M3623 4914 c-2 -7 -2 -18 2 -24 3 -5 0 -10 -7 -10 -10 0 -9 -3 1 -9
11 -7 12 -13 4 -23 -6 -7 -13 -45 -16 -85 -4 -59 -2 -71 9 -66 8 3 14 0 14 -7
0 -6 -4 -9 -9 -5 -18 10 -21 -10 -36 -227 l-4 -58 42 -2 c47 -1 75 -4 132 -14
78 -13 122 -4 155 31 49 52 60 159 20 199 -20 20 -20 20 12 31 39 13 68 65 68
122 0 35 -6 48 -35 76 -20 19 -48 38 -63 41 -100 22 -128 26 -255 40 -17 2
-31 -2 -34 -10z m192 -104 c-6 -9 9 -13 41 -13 15 0 0 -87 -17 -98 -8 -5 -20
-7 -28 -4 -7 3 -21 0 -29 -7 -9 -7 -13 -8 -9 -2 4 8 -5 11 -28 10 -24 -1 -34
-5 -30 -13 2 -7 -3 -13 -11 -13 -8 0 -12 5 -9 10 3 6 0 10 -7 11 -7 0 -2 4 10
10 13 5 28 6 33 3 11 -7 17 10 22 61 2 33 7 40 24 40 12 0 25 4 29 8 11 10 16
9 9 -3z m-158 -84 c-3 -7 0 -19 6 -25 8 -8 8 -11 -1 -11 -14 0 -34 35 -25 44
12 11 25 6 20 -8z m317 -34 c3 -5 -10 -9 -29 -10 -19 -1 -35 3 -35 8 0 12 57
13 64 2z m-192 -92 c20 -6 39 -18 42 -27 8 -20 -12 -83 -25 -83 -6 0 -8 -3 -6
-7 3 -5 -13 -9 -35 -10 -22 -1 -37 1 -34 4 3 3 2 11 -2 17 -9 12 6 116 16 116
4 0 23 -5 44 -10z m118 0 c0 -5 -7 -10 -16 -10 -8 0 -12 5 -9 10 3 6 10 10 16
10 5 0 9 -4 9 -10z m-9 -87 c-10 -17 -10 -17 -11 2 0 17 -2 17 -10 5 -11 -17
-13 -6 -4 27 4 13 10 20 15 17 5 -3 10 1 10 8 1 7 4 1 6 -14 2 -15 0 -35 -6
-45z"/>
<path d="M3075 4869 c-4 -6 -5 -12 -2 -15 2 -3 7 2 10 11 7 17 1 20 -8 4z"/>
<path d="M2755 4834 c-38 -13 -71 -24 -73 -24 -5 0 7 -40 23 -75 29 -69 95
-252 101 -284 6 -30 3 -37 -22 -58 -16 -13 -24 -23 -19 -22 15 3 45 -12 45
-22 0 -5 -16 1 -36 12 -26 14 -40 17 -47 10 -7 -7 -8 -11 -1 -11 6 0 9 -13 6
-28 -3 -21 2 -31 21 -41 20 -11 30 -10 68 8 54 26 97 64 110 99 14 36 13 111
-2 164 -7 24 -14 48 -15 53 -36 136 -69 238 -79 241 -6 2 -41 -8 -80 -22z
m125 -268 c0 -3 -4 -8 -10 -11 -5 -3 -10 -1 -10 4 0 6 5 11 10 11 6 0 10 -2
10 -4z m-65 -16 c3 -5 1 -10 -4 -10 -6 0 -11 5 -11 10 0 6 2 10 4 10 3 0 8 -4
11 -10z m35 6 c0 -3 -4 -8 -10 -11 -5 -3 -10 -1 -10 4 0 6 5 11 10 11 6 0 10
-2 10 -4z"/>
<path d="M4123 4810 c3 -11 1 -20 -4 -20 -14 0 -11 -48 4 -53 6 -2 3 -3 -8 -1
-18 3 -28 -19 -89 -207 -37 -116 -64 -214 -60 -218 5 -4 47 -22 94 -41 47 -19
105 -44 129 -57 24 -13 49 -23 55 -23 13 0 59 77 52 88 -3 5 -144 76 -173 88
-2 0 7 24 19 53 16 37 27 51 38 47 43 -13 86 -32 98 -43 13 -13 61 -29 65 -22
1 2 13 23 26 47 l23 43 -91 42 c-50 23 -93 48 -96 55 -2 7 -1 11 3 8 11 -6 35
61 27 74 -4 6 3 6 21 0 21 -8 29 -8 36 2 6 10 8 10 8 -2 0 -8 32 -31 73 -52
78 -41 102 -47 94 -24 -3 8 1 17 10 20 9 4 13 13 9 22 -3 8 -2 12 4 9 6 -3 10
-1 10 4 0 6 0 13 0 16 0 3 -1 4 -3 3 -1 -2 -12 6 -24 17 -25 23 -259 126 -285
125 -10 0 -18 4 -18 8 0 4 -12 9 -26 10 -22 2 -25 -1 -21 -18z m74 -102 c-3
-8 -6 -5 -6 6 -1 11 2 17 5 13 3 -3 4 -12 1 -19z m78 -238 c3 -6 -1 -7 -9 -4
-18 7 -21 14 -7 14 6 0 13 -4 16 -10z"/>
<path d="M2523 4719 c16 -23 15 -25 -2 -25 -10 0 -17 6 -14 12 2 7 0 15 -6 19
-6 3 -11 1 -11 -5 0 -6 -4 -8 -10 -5 -10 6 -90 -31 -90 -42 0 -9 60 -114 79
-139 9 -11 22 -19 29 -16 16 5 16 -15 0 -21 -10 -4 -9 -8 2 -16 8 -6 12 -11 7
-11 -10 0 21 -60 32 -60 4 0 8 -6 8 -14 0 -40 88 -112 149 -122 60 -9 60 7 1
36 -29 14 -56 30 -62 35 -9 9 -16 65 -8 65 7 0 32 -58 27 -63 -8 -8 34 -19 46
-12 5 3 10 1 10 -6 0 -7 3 -10 6 -7 3 3 -1 16 -8 27 -11 18 -11 23 1 31 11 6
12 12 3 22 -11 14 -79 150 -121 243 -13 28 -37 61 -54 75 l-30 24 16 -25z m7
-179 c6 -11 7 -20 2 -20 -6 0 -12 9 -15 20 -3 11 -3 20 -1 20 2 0 8 -9 14 -20z
m-33 4 c-3 -3 -12 -4 -19 -1 -8 3 -5 6 6 6 11 1 17 -2 13 -5z m118 -4 c3 -6
-1 -7 -9 -4 -18 7 -21 14 -7 14 6 0 13 -4 16 -10z m-18 -83 c-18 -20 -38 -37
-43 -37 -5 0 -4 4 2 8 6 4 24 27 40 52 18 30 29 40 31 29 2 -8 -11 -32 -30
-52z m57 0 c3 3 6 0 6 -9 0 -24 -12 -29 -32 -11 -24 21 -23 37 1 24 10 -6 21
-7 25 -4z"/>
<path d="M2270 4630 c0 -5 -6 -10 -14 -10 -8 0 -21 -9 -29 -20 -8 -12 -18 -20
-23 -18 -5 2 -20 -5 -33 -14 -19 -14 -21 -19 -10 -31 7 -8 21 -12 30 -10 9 3
20 0 23 -6 4 -7 1 -9 -8 -5 -11 4 -14 0 -11 -14 6 -35 25 -63 37 -56 7 4 8 3
4 -4 -4 -6 9 -33 29 -60 19 -27 35 -52 35 -56 0 -3 -30 6 -67 20 -38 14 -75
27 -83 29 -8 2 -28 8 -44 14 -16 7 -31 9 -34 6 -3 -3 0 -5 7 -5 7 0 10 -4 6
-9 -3 -5 0 -13 6 -17 6 -3 15 0 20 7 6 9 9 10 9 2 0 -33 -41 -24 -60 13 -9 15
-16 20 -20 13 -5 -7 -9 -5 -13 5 -11 29 -46 17 -98 -34 l-52 -49 24 -25 c13
-14 30 -26 37 -26 7 0 11 -4 8 -8 -3 -5 5 -17 17 -28 21 -19 26 -20 57 -23 13
-1 13 -2 0 -11 -11 -7 13 -36 114 -138 120 -121 129 -129 146 -113 9 9 15 20
12 25 -3 5 -1 6 5 3 5 -4 22 6 36 21 l26 27 -67 80 c-36 44 -74 89 -84 99 -10
11 -16 22 -13 24 6 6 243 -87 250 -99 11 -16 45 -10 85 17 22 15 40 28 40 30
0 3 -197 328 -232 382 -10 15 -24 39 -33 55 -15 27 -35 36 -35 17z m-65 -60
c3 -5 1 -10 -4 -10 -6 0 -11 5 -11 10 0 6 2 10 4 10 3 0 8 -4 11 -10z m30 -30
c3 -5 1 -10 -4 -10 -6 0 -11 5 -11 10 0 6 2 10 4 10 3 0 8 -4 11 -10z m-102
-195 c-3 -9 -8 -14 -10 -11 -3 3 -2 9 2 15 9 16 15 13 8 -4z m110 -30 c-3 -9
-8 -14 -10 -11 -3 3 -2 9 2 15 9 16 15 13 8 -4z m-108 -95 c-3 -5 -12 -10 -18
-10 -7 0 -6 4 3 10 19 12 23 12 15 0z"/>
<path d="M4520 4518 c-36 -54 -59 -99 -57 -109 3 -11 0 -16 -8 -13 -11 5 -65
-65 -65 -85 0 -5 -7 -14 -15 -21 -23 -19 -18 -30 16 -30 16 0 28 4 24 9 -3 5
-1 12 5 16 11 7 13 -15 2 -30 -13 -18 -52 -37 -50 -24 2 6 -2 13 -9 16 -10 4
-63 -61 -63 -78 0 -3 23 -20 51 -39 l50 -32 17 23 c9 13 16 28 14 32 -1 5 1 6
6 3 5 -3 24 17 43 44 19 28 37 50 40 50 4 0 18 -12 33 -27 29 -29 28 -52 -6
-87 -11 -12 -33 -37 -49 -57 l-28 -36 31 -29 c20 -19 29 -23 25 -12 -3 10 -1
20 5 24 7 4 8 3 4 -4 -4 -7 -2 -12 3 -12 6 0 11 -9 11 -19 0 -40 23 -32 76 24
70 74 84 94 84 122 0 18 6 23 28 23 33 0 78 23 75 38 -2 6 3 9 11 6 18 -7 56
47 63 89 3 19 -2 49 -11 71 -14 35 -18 37 -34 25 -15 -13 -16 -12 -4 3 12 15
10 21 -16 45 -51 48 -218 173 -232 173 -5 0 -36 -41 -70 -92z m211 -81 c-10
-9 -11 -8 -5 6 3 10 9 15 12 12 3 -3 0 -11 -7 -18z m34 -7 c3 -5 -1 -10 -10
-10 -9 0 -13 5 -10 10 3 6 8 10 10 10 2 0 7 -4 10 -10z m-65 -25 c12 -13 26
-22 31 -19 19 12 -13 -63 -36 -83 -32 -29 -45 -29 -81 -1 -16 12 -30 23 -32
24 -7 5 73 104 83 104 7 0 22 -11 35 -25z m80 -114 c0 -6 -4 -12 -8 -15 -5 -3
-9 1 -9 9 0 8 4 15 9 15 4 0 8 -4 8 -9z m-50 -65 c0 -3 -4 -8 -10 -11 -5 -3
-10 -1 -10 4 0 6 5 11 10 11 6 0 10 -2 10 -4z"/>
<path d="M3310 4179 c-135 -3 -246 -6 -247 -7 -19 -15 -42 -90 -98 -307 -36
-143 -87 -339 -112 -435 -25 -96 -46 -182 -48 -190 -3 -15 -47 -185 -189 -730
-41 -157 -75 -296 -74 -310 0 -14 -17 -72 -37 -130 -56 -162 -75 -223 -75
-249 0 -13 -7 -50 -16 -84 -18 -70 -15 -74 53 -70 26 2 143 5 258 7 116 2 218
7 227 11 10 4 22 23 28 44 10 39 57 257 66 306 2 17 7 37 9 45 2 8 7 29 10 45
2 17 7 41 11 55 3 14 6 31 6 38 1 8 24 12 77 13 42 0 173 2 292 4 l216 4 37
-157 c20 -86 38 -166 40 -177 8 -43 19 -80 26 -90 8 -11 22 -77 24 -110 1 -19
8 -20 141 -18 347 4 411 7 428 15 23 12 20 31 -33 218 -21 74 -50 180 -65 235
-31 118 -28 106 -59 220 -14 50 -37 135 -52 190 -14 55 -32 105 -38 110 -16
13 -29 48 -16 40 6 -3 10 -3 10 2 0 19 -29 115 -38 126 -13 16 -46 127 -44
151 1 23 -311 1172 -322 1183 -7 7 -137 8 -396 2z m150 -1074 c28 -121 54
-227 57 -235 4 -8 8 -26 9 -40 2 -14 8 -47 15 -73 6 -26 8 -51 5 -55 -8 -8
-356 -14 -356 -7 0 3 9 46 20 96 12 51 18 94 16 97 -3 2 -1 13 5 24 6 11 12
45 14 75 1 31 8 59 14 62 6 4 12 25 15 46 2 22 6 47 10 55 3 8 7 26 10 40 2
14 7 36 10 50 3 14 8 36 10 50 2 14 7 36 10 50 3 14 8 36 10 50 5 30 16 78 24
105 6 22 16 -18 102 -390z"/>
<path d="M2735 1489 c-50 -10 -75 -21 -69 -30 3 -5 -4 -9 -15 -9 -42 0 -84
-95 -78 -178 3 -29 1 -52 -4 -52 -4 0 -6 -34 -4 -75 7 -158 81 -228 228 -220
103 5 164 63 181 170 9 53 9 216 0 252 -12 46 -52 101 -86 120 -39 20 -111 31
-153 22z m82 -121 c16 -17 18 -38 18 -152 0 -109 -3 -136 -18 -159 -38 -59
-106 -21 -108 61 -3 72 -3 76 -13 91 -6 9 -5 12 1 8 7 -4 12 20 15 65 4 55 10
76 25 88 28 22 58 22 80 -2z"/>
<path d="M3889 1471 c-5 -39 -4 -71 3 -71 5 0 6 -5 2 -11 -10 -17 -6 -452 5
-458 7 -5 124 -6 289 -2 l32 1 0 54 0 55 -82 0 c-129 -1 -119 -5 -117 44 2 73
3 74 67 74 90 1 104 2 97 13 -3 6 -3 10 2 10 4 0 7 19 5 43 l-4 44 -81 -1 -82
-1 -3 53 c-3 58 -8 56 93 53 77 -2 92 4 93 36 0 16 -5 34 -12 42 -8 12 -8 13
2 7 7 -4 12 -1 12 9 0 13 -20 15 -160 14 -88 -1 -160 -4 -161 -8z"/>
<path d="M4308 1472 c-5 -26 -2 -72 5 -72 5 0 5 -6 -1 -12 -14 -18 -10 -447 5
-456 9 -6 79 -7 279 -3 l40 1 -2 48 c-1 26 -2 50 -3 54 0 4 -43 6 -93 5 l-93
-2 0 60 0 60 60 1 c114 3 104 -2 104 57 l-1 53 -85 0 -86 -1 -1 53 c-1 59 -10
54 111 54 43 0 76 4 80 11 3 6 1 13 -5 15 -7 2 -9 10 -4 20 4 9 7 26 7 37 0
19 -7 20 -158 22 -86 1 -158 -1 -159 -5z"/>
<path d="M2285 1457 c-22 -6 -52 -19 -68 -29 -27 -19 -65 -78 -50 -78 5 0 1
-5 -7 -10 -20 -13 -21 -229 -1 -280 20 -51 61 -102 76 -96 7 2 16 -1 18 -9 5
-10 77 -32 97 -28 3 1 29 4 58 7 30 3 57 8 61 10 3 2 5 25 3 50 l-4 47 -55 -5
c-102 -8 -123 17 -130 151 -5 100 5 146 38 163 10 6 44 10 77 10 l59 0 -2 45
c-1 25 -4 48 -8 51 -10 10 -119 11 -162 1z"/>
<path d="M3198 1464 c-4 -3 -30 -6 -60 -7 l-53 -2 -3 -45 c-1 -25 -3 -142 -5
-260 l-2 -215 40 -1 c22 0 52 3 68 9 24 8 27 14 28 60 1 29 0 60 -1 71 -1 10
1 28 4 40 5 21 11 23 78 22 l73 -1 3 53 c3 44 0 52 -15 53 -82 5 -120 4 -129
-2 -7 -6 -10 12 -8 54 l1 62 74 -2 c40 -1 79 2 86 8 7 6 11 29 10 55 l-2 44
-82 -3 c-46 -2 -87 1 -91 5 -5 5 -11 6 -14 2z"/>
<path d="M3495 1452 c-13 -31 -14 -466 -2 -481 10 -12 9 -13 -1 -7 -10 6 -13
3 -10 -10 3 -15 14 -19 58 -21 29 -1 60 3 67 9 9 7 13 38 13 98 0 95 2 99 58
94 18 -1 30 1 28 4 -2 4 6 7 19 7 13 0 21 -4 18 -8 -3 -5 3 -7 13 -5 26 5 31
108 6 109 -10 0 -40 1 -69 2 -28 1 -55 6 -60 10 -12 13 -12 97 1 98 6 1 31 2
56 3 32 1 44 5 42 14 -1 8 2 11 8 7 6 -3 8 -11 5 -16 -9 -14 31 -11 43 4 8 10
9 53 3 88 0 4 -48 7 -105 7 -58 0 -110 3 -117 8 -8 4 -10 3 -5 -4 9 -14 9 -14
-31 -3 -26 7 -33 6 -38 -7z"/>
</g>
</svg>
